# xmcd CD database file
#
# Track frame offsets:
#	150
#	14820
#	37472
#	58636
#	79244
#	97834
#	121861
#	139777
#	162622
#
# Disc length: 2564 seconds
#
# Revision: 0
# Processed by: cddbd v1.5.2PL0 Copyright (c) Steve Scherf et al.
# Submitted via: CDex 2.15
#
DISCID=7d0a0209
DTITLE=Curtis Ohlson - So Fast
DYEAR=2009
DGENRE=Jazz
TTITLE0=Half Nelson
TTITLE1=Verbal Abuse
TTITLE2=You
TTITLE3=Love School
TTITLE4=Fast Village Chant
TTITLE5=I'm Dreaming of you (As I sing this Song)
TTITLE6=So Fast
TTITLE7=Village Chant
TTITLE8=This Burg's for you (Bonus Track)
EXTD=YEAR: 2009
EXTT0=
EXTT1=
EXTT2=
EXTT3=
EXTT4=
EXTT5=
EXTT6=
EXTT7=
EXTT8=
PLAYORDER=
